<svg xmlns="http://www.w3.org/2000/svg" width="100" height="100" viewBox="0 0 100 100">
  <defs>
    <pattern id="foodPattern" patternUnits="userSpaceOnUse" width="100" height="100">
      <rect width="100" height="100" fill="#ffffff" fill-opacity="0.05"/>
      
      <!-- Pizza -->
      <path d="M20,20 l10,-5 l10,5 l-10,15 z" fill="#ff9800" fill-opacity="0.7"/>
      
      <!-- Burger -->
      <g transform="translate(60, 30)">
        <rect x="-8" y="-2" width="16" height="2" rx="1" fill="#8D6E63"/>
        <rect x="-7" y="0" width="14" height="6" rx="1" fill="#FF7043"/>
        <rect x="-8" y="6" width="16" height="2" rx="1" fill="#8D6E63"/>
      </g>
      
      <!-- Coffee -->
      <g transform="translate(25, 70)">
        <path d="M-5,-5 h10 v10 h-10 z" fill="#5D4037"/>
        <path d="M-5,-5 h10 v2 h-10 z" fill="#BBDEFB"/>
      </g>
      
      <!-- Fork -->
      <g transform="translate(70, 70) rotate(45)">
        <rect x="-1" y="-7" width="2" height="14" fill="#BDBDBD"/>
        <path d="M-1,-7 v-4 h0.5 v4 h1 v-4 h0.5 v4 z" fill="#BDBDBD"/>
      </g>
    </pattern>
  </defs>
  
  <rect width="100" height="100" fill="url(#foodPattern)"/>
</svg> 